<svg width="1200" height="167" viewBox="0 0 1200 167" fill="none" xmlns="http://www.w3.org/2000/svg">
<g opacity="0.1" clip-path="url(#clip0_3_6367)">
<path d="M760.033 752C748.865 747.854 736.732 747.125 725.133 745.754C678.268 740.21 632.041 727.448 584.352 730.892C556.253 732.922 528.334 737.407 500.245 739.712C487.783 740.734 480.895 732.162 476.248 721.138C471.483 709.835 467.774 694.551 451.686 697.259C431.351 700.683 425.626 717.661 423.563 735.959C423.264 738.607 422.77 741.231 422.367 743.865C420.089 742.313 417.515 741.063 415.583 739.158C385.373 709.425 388.021 668.326 429.591 650.666C492.554 623.92 527.33 573.658 561.995 520.469C575.999 498.982 595.376 480.945 623.342 494.305C652.221 508.101 646.828 536.654 641.503 560.08C627.249 622.801 644.92 685.136 685.092 702.212C721.323 717.61 760.752 719.815 798.381 729.444C816.35 734.041 833.439 740.62 848.059 752.003H918.82C898.096 740.761 877.499 729.249 856.297 719.001C821.874 702.363 784.054 697.612 747.165 689.309C691.12 676.696 665.6 619.905 676.783 557.399C691.466 475.321 749.903 430.969 809.338 385.407C861.401 345.497 907.82 301.437 906.889 228.683C906.301 182.826 886.272 144.784 854.587 112.891C806.868 64.8598 812.95 12.0406 837.243 -44.2057C861.421 -100.18 879.286 -157.273 857.184 -219.191C848.401 -243.793 828.44 -255.913 809.382 -269.937C776.181 -294.361 775.257 -317.858 811.599 -337.131C856.173 -360.768 876.538 -396.028 885.58 -444.204C896.859 -504.324 947.195 -523.419 1005.96 -495.145C1047.28 -475.267 1080.73 -442.238 1123.95 -425.808C1150.55 -415.694 1176.9 -415.818 1203 -425.808V-465.022C1125.29 -427.857 1070.97 -475.919 1015.92 -520.761C982.509 -547.981 946.191 -560.104 902.44 -550.474C887.69 -547.228 861.119 -542.548 860.964 -566.79C860.813 -590.871 883.732 -589.171 901.644 -592H806.858C809.345 -550.951 827.852 -513.557 834.488 -473.426C843.697 -417.713 815.194 -380.28 774.764 -348.679C760.994 -337.917 746.956 -327.252 731.954 -318.382C715.977 -308.933 695.048 -298.339 683.889 -320.247C672.378 -342.843 695.212 -352.781 711.038 -361.326C741.573 -377.817 779.709 -383.66 789.719 -425.922C799.796 -468.483 784.208 -507.563 776.094 -547.792C773.144 -562.412 771.232 -577.24 768.971 -592H732.673C737.733 -576.621 742.897 -561.273 747.746 -545.827C760.581 -504.942 777.848 -463.097 743.882 -424.605C721.145 -398.84 687.803 -383.905 667.643 -355.261C640.024 -316.016 611.289 -278.673 564.602 -260.045C553.783 -255.728 538.387 -251.377 539.254 -237.09C540.195 -221.604 555.655 -215.196 567.962 -208.446C605.819 -187.691 648.824 -193.998 689.077 -185.779C709.69 -181.573 731.11 -176.156 738.654 -153.328C744.406 -135.92 733.456 -121.654 720.368 -112.78C694.56 -95.2811 667.724 -79.0288 640.145 -64.4733C573.479 -29.284 514.347 13.7072 481.15 84.2235C472.256 103.113 465.133 123.929 477.084 144.233C483.64 155.368 495.799 159.575 508.688 157.858C532.39 154.7 551.502 141.179 571.006 128.744C611.491 102.932 650.951 71.936 700.356 68.9792C753.122 65.8242 792.286 102.636 834.38 127.705C870.043 148.947 891.718 181.932 884.958 225.317C872.506 305.244 822.761 360.083 757.886 402.752C737.363 416.252 713.655 428.691 688.915 415.59C666.101 403.511 669.32 379.399 673.738 359.199C683.193 315.996 667.243 290.299 629.934 266.752C582.037 236.526 581.113 211.131 620.099 176.983C648.374 152.22 681.248 126.392 720.332 133.263C780.26 143.8 811.424 190.504 812.221 255.389C812.325 263.738 810.477 274.907 821.404 278.603C824.861 279.772 831.598 276.513 834.464 273.217C845.895 260.066 850.407 243.891 851.563 226.765C854.789 178.992 821.441 157.508 786.332 138.887C758.834 124.302 733.903 99.2965 699.597 104.961C654.257 112.451 623.241 148.94 582.924 167.336C547.792 183.367 542.749 205.52 567.176 235.659C578.19 249.247 591.822 261.4 606.182 271.46C661.955 310.53 668.5 337.863 631.812 387.843C612.805 413.735 588.152 436.95 575.213 465.53C545.551 531.056 504.529 579.336 434.1 604.852C358.916 632.092 337.402 701.264 381.798 751.997H760.037L760.033 752ZM542.003 113.583C532.158 123.294 515.455 137.029 504.613 122.857C489.032 102.495 509.696 85.927 522.286 72.356C575.875 14.5942 643.979 -24.533 707.342 -69.809C732.387 -87.7043 755.682 -109.276 763.077 -140.799C769.861 -169.708 746.126 -179.073 726.285 -189.929C720.372 -193.165 710.312 -194.142 711.357 -202.129C711.737 -205.032 724.175 -208.009 731.154 -208.117C769.152 -208.701 793.459 -185.773 793.459 -139.667C790.085 -95.2811 755.071 -59.5543 713.948 -31.3672C651.609 11.3687 595.571 60.7505 541.999 113.583H542.003ZM647.806 59.6485C645.897 60.2432 643.844 60.381 641.859 60.7304C642.564 58.6136 642.85 56.2179 644.043 54.4271C669.454 16.197 711.367 -1.92017 746.476 -27.9871C798.962 -66.9597 830.298 -141.626 807.927 -185.722C791.174 -218.744 762.879 -232.433 721.565 -232.366C700.733 -232.608 676.47 -223.979 651.831 -216.953C641.372 -213.97 627.35 -207.703 621.487 -219.897C615.772 -231.788 628.95 -238.901 638.263 -243.86C710.96 -282.588 822.338 -272.316 845.226 -177.826C858.834 -121.65 833.372 -74.6406 799.281 -32.8994C759.919 15.2931 706.028 41.4641 647.809 59.6518L647.806 59.6485Z" fill="#E4E1D9"/>
<path d="M693.288 -592H665.984C683.077 -571.276 696.352 -548.8 699.806 -521.07C704.107 -486.54 696.628 -454.68 671.535 -431.17C626.985 -389.432 598.811 -332.917 548.945 -296.475C511.619 -269.198 471.451 -276.284 433.661 -293.824C388.751 -314.669 346.19 -310.828 303.064 -290.934C300.376 -289.694 297.251 -289.402 294.331 -288.666C295.114 -291.687 295.484 -294.895 296.744 -297.701C311.756 -331.093 370.65 -344.187 415.654 -324.88C460.732 -305.536 505.85 -280.333 553.34 -319.517C585.734 -346.246 604.631 -383.633 629.797 -416.08C648.926 -440.746 675.48 -461.535 676.881 -495.743C678.746 -541.204 654.365 -570.748 618.168 -591.997H436.443C453.609 -586.066 470.715 -579.917 488.156 -574.951C521.192 -565.543 554.026 -580.213 587.021 -577.25C619.257 -574.357 643.089 -557.19 658.572 -529.289C668.084 -512.153 667.782 -494.372 656.244 -477.448C651.714 -470.805 645.808 -466.709 638.113 -467.865C628.91 -469.246 625.14 -476.933 623.128 -485.115C609.486 -540.548 593.563 -552.224 538.566 -536.98C502.651 -527.024 476.03 -545.77 447.087 -557.557C384.185 -583.173 322.038 -543.058 321.749 -475.505C321.678 -459.209 320.623 -442.873 319.098 -426.641C318.033 -415.335 315.829 -402.341 300.309 -404.529C286.123 -406.528 280.891 -419.645 281.325 -431.489C283.734 -496.983 296.297 -573.083 373.157 -591.993H316.061C276.382 -541.802 259.404 -484.208 265.627 -420.489C267.955 -396.673 281.066 -374.39 309.189 -378.519C339.638 -382.991 335.619 -412.082 338.841 -433.952C344.678 -473.553 339.033 -518.308 383.822 -540.505C413.4 -555.164 441.637 -545.094 465.644 -526.695C486.352 -510.826 506.27 -504.912 533.103 -507.731C592.407 -513.961 613.662 -484.49 599.285 -422.095C586.158 -365.119 539.91 -316.11 499.103 -316.987C468.641 -317.643 446.281 -339.073 419.696 -349.707C367.862 -370.445 326.1 -347.997 286.792 -316.776C227.081 -269.353 163.13 -231.163 84.9093 -224.342C77.6484 -223.71 69.0166 -224.786 67.3601 -232.823C65.5087 -241.814 74.4934 -244.317 81.1193 -246.663C117.592 -259.558 155.812 -267.629 189.882 -287.124C240.907 -316.319 246.609 -360.829 238.008 -414.075C227.861 -476.88 242.097 -536.617 273.647 -591.987H243.629C219.45 -531.631 223.019 -467.653 219.998 -404.472C218.241 -367.686 210.298 -332.356 183.559 -304.912C128.263 -248.158 45.1471 -250.543 -16.2737 -308.927C-24.6266 -316.866 -35.6138 -332.9 -47.8745 -322.639C-60.2729 -312.26 -47.898 -299.052 -40.3514 -288.626C-35.2006 -281.506 -30.1068 -274.241 -24.1495 -267.824C7.48824 -233.743 35.8097 -193.813 90.8969 -199.149C124.332 -202.388 150.436 -223.092 179.275 -237.093C241.7 -267.4 304.684 -228.307 304.684 -158.718C304.684 -72.6616 216.531 -11.98 127.665 -30.5675C66.174 -43.4296 11.705 -74.9767 -49.3327 -87.7615C-83.6921 -94.9586 -125.06 -71.4755 -133.622 -37.1296C-140.792 -8.36127 -120.77 15.9886 -83.9441 25.9275C-31.7095 40.0261 16.9836 59.8367 51.3833 105.63C87.5503 153.779 100.47 155.425 151.592 119.836C194.059 90.2749 237.709 76.8315 288.912 95.5131C335.74 112.599 355.188 100.046 355.635 50.2842C356.209 -13.5861 385.639 -54.6083 443.939 -77.2346C494.087 -96.6957 520.345 -144.035 507.755 -195.265C501.039 -222.595 479.128 -233.296 453.545 -227.464C430.721 -222.259 439.09 -201.83 442.292 -186.868C450.985 -146.249 447.944 -109.958 410.651 -83.5984C387.054 -66.9194 364.737 -48.9333 353.541 -20.7966C345.014 0.640137 335.928 21.9828 319.746 38.9105C284.036 76.267 235.783 69.9838 190.961 74.4997C95.4396 84.1193 16.4863 38.9038 -62.7055 -4.46704C-78.1313 -12.9141 -96.5642 -25.0101 -84.2129 -45.3885C-72.4999 -64.7085 -52.0846 -58.2304 -36.0406 -48.5973C17.4439 -16.4925 69.3929 17.3159 132.678 29.6806C186.744 40.2444 241.492 26.9019 266.585 -7.3432C314.864 -73.2361 327.394 -147.798 324.783 -227.181C323.18 -275.878 351.173 -297.856 397.366 -282.369C471.343 -257.562 538.805 -259.279 594.719 -321.144C623.669 -353.171 646.295 -391.005 681.689 -417.099C712.618 -439.9 727.029 -469.014 721.008 -508.071C716.431 -537.76 704.124 -564.576 693.274 -591.993L693.288 -592Z" fill="#E4E1D9"/>
<path d="M787.503 644.17C851.844 666.39 905.09 709.314 966.094 737.561C976.96 742.591 987.974 747.295 998.992 751.999H1044.44C1042.1 751.65 1039.8 751.216 1037.59 750.783C982.702 739.98 939.224 710.13 900.89 670.109C839.412 605.923 852.758 465.082 925.367 414.343C965.704 386.156 1004.92 356.258 1043.4 325.572C1054.74 316.526 1065.28 298.346 1051.97 287.167C1038.16 275.582 1032.38 295.99 1024.16 304.404C1009.19 319.735 995.548 337.15 978.271 349.313C911.571 396.263 851.474 447.482 834.973 533.448C832.06 548.625 825.444 564.404 806.131 559.256C791.176 555.268 790.316 540.027 793.017 526.899C807.794 455.063 855.55 406.709 909.878 362.858C940.864 337.849 978.533 318.657 993.344 278.239C1005.56 244.908 988.189 212.471 986.644 179.402C985.367 152.051 990.625 121.815 972.787 98.6877C959.492 81.4475 936.25 71.7303 923.583 54.2079C889.573 7.16122 901.192 -45.8831 913.97 -96.1218C928.039 -151.434 940.585 -205.386 927.333 -263.01C914.955 -316.827 915.697 -370.775 940.444 -422.022C944.748 -430.936 951.461 -439.225 962.68 -436.849C974.276 -434.393 975.784 -424.098 975.734 -413.978C975.532 -372.398 963.063 -331.88 967.337 -289.648C971.349 -249.993 997.829 -220.815 1028.02 -227.988C1080.47 -240.457 1138.36 -213.13 1157.05 -162.962C1175.6 -113.177 1165.24 -58.7855 1176.52 -7.49176C1181.83 16.6834 1185.4 41.5575 1203 60.3332V-18.61C1193.24 -45.1405 1190.89 -73.3276 1190.32 -101.031C1188.53 -188.266 1149.05 -244.546 1064.77 -271.03C1010.82 -287.981 992.49 -324.249 995.85 -397.322C997.043 -423.309 1005.6 -453.962 970.576 -461.196C938.206 -467.882 929.551 -437.827 919.978 -414.808C906.454 -382.283 885.924 -355.4 862.018 -329.776C837.772 -303.787 863.338 -284.887 876.775 -265.919C921.329 -203.04 914.676 -134.873 885.477 -72.1583C851.75 0.286652 866.295 54.097 918.664 109.796C971.692 166.197 978.328 254.585 938.223 308.567C906.908 350.714 858.073 374.819 821.557 412.008C778.068 456.299 726.879 496.811 718.916 563.789C713.227 611.649 749.66 631.103 787.503 644.17Z" fill="#E4E1D9"/>
<path d="M687.216 -144.351C686.534 -147.812 680.1 -151.757 675.722 -152.617C638.964 -159.841 600.71 -158.564 565.269 -173.711C552.655 -179.104 546.288 -169.864 545.28 -158.547C540.371 -103.581 516.018 -64.3158 461.455 -45.4763C429.589 -34.4757 397.92 -18.4585 390.428 18.3637C385.186 44.1147 387.185 71.4181 386.698 98.0427C386.08 132.043 368.363 148.228 335.596 141.908C306.612 136.313 278.231 124.956 249.14 123.088C186.597 119.073 148.508 161.469 113.584 204.894C97.0392 225.464 99.8885 248.621 120.848 266.584C134.688 278.448 149.502 274.127 162.653 264.736C178.351 253.527 191.627 237.332 208.803 230.044C298.088 192.153 384.783 210.29 464.435 255.533C535.368 295.822 550.831 350.658 518.524 404.754C488.62 454.828 437.222 469.259 386.873 486.16C319.562 508.752 260.53 540.286 242.315 617.956C232.491 659.852 211.393 695.101 164.636 702.389C122.37 708.978 95.6011 680.942 69.1277 653.31C46.7434 629.951 25.9819 603.625 -5.68272 592.01C-60.9514 571.736 -101.984 599.398 -141 632.525V680.768C-129.432 663.873 -118.78 646.227 -101.362 634.208C-49.7357 598.578 -5.63232 607.026 33.3336 657.607C59.7566 691.906 88.1352 724.7 122.044 752.013H248.884C230.092 672.939 265.476 611.891 319.38 558.648C353.8 524.645 401.529 512.143 443.233 489.866C498.536 460.328 545.179 422.394 557.524 356.312C566.579 307.855 532.216 284.267 499.594 259.817C475.983 242.119 445.827 229.798 440.626 195.389C439.799 189.919 442.773 183.874 443.989 178.095C446.714 179.402 450.152 180.064 452.027 182.14C456.311 186.884 459.617 192.499 463.699 197.448C489.447 228.666 522.392 251.736 553.492 276.919C596.009 311.346 594.702 352.973 560.743 412.791C516.3 491.075 442.353 530.024 368.571 570.422C314.327 600.124 263.84 683.899 293.66 752.013H335.754C297.816 673.023 340.018 589.859 417.97 563.379C452.275 551.727 490.035 545.894 513.528 513.188C540.885 475.105 555.642 429.171 588.513 394.385C604.077 377.914 620.709 360.311 618.014 335.023C614.452 301.612 585.183 288.098 563.444 269.204C523.235 234.257 474.323 205.317 457.456 151.682C434.723 79.3914 473.211 24.1899 518.716 -26.2739C561.724 -73.9691 622.449 -94.4718 675.688 -126.466C682.19 -130.373 688.859 -136.015 687.216 -144.338V-144.351ZM468.695 12.7962C446.701 52.6088 438.912 95.9931 432.273 140.389C424.401 193.013 385.331 217.551 333.489 196.252C264.787 168.028 207.637 175.823 156.562 229.845C150.782 235.957 138.757 244.881 133.757 236.028C125.119 220.73 138.525 207.757 148.084 196.712C196.828 140.392 254.22 131.115 322.448 160.361C348.653 171.593 385.21 187.241 401.223 144.031C409.405 121.956 408.572 96.5341 411.814 72.6277C413.198 44.024 411.401 14.0226 434.457 -8.05598C444.225 -17.4102 457.389 -26.4755 469.972 -18.341C482.32 -10.361 474.119 2.9816 468.695 12.7962Z" fill="#E4E1D9"/>
<path d="M488.862 352.932C479.841 344.243 468.107 367.626 458.71 377.679C438.492 399.31 415.083 411.823 385.898 399.734C358.538 388.4 331.964 381.724 302.97 392.923C243.293 415.973 192.171 457.391 126.674 468.99C70.6699 478.905 6.39648 448.098 -11.0285 393.981C-24.6902 351.558 -13.5619 306.285 -24.193 263.287C-41.1912 194.542 -73.1414 137.449 -141 107.874V139.797C-89.7096 164.964 -66.4013 211.634 -53.5056 263.513C-36.0605 333.683 -26.0107 405.708 -48.7814 476.305C-62.7523 519.618 -99.4906 542.11 -141 556.273V583.798C-45.6768 512.65 29.4595 536.025 100.07 617.415C137.352 660.389 176.204 660.547 197.134 607.812C228.442 528.916 276.96 471.591 360.786 447.577C400.921 436.079 446.046 435.34 476.45 400.335C488.368 386.616 503.186 366.735 488.866 352.939L488.862 352.932ZM337.491 432.201C282.394 461.155 239.58 507.489 186.301 538.865C167.287 550.06 146.307 555.574 121.436 555.705C85.5917 554.331 51.0677 540.612 19.4635 519.39C12.7066 514.854 3.34224 508.033 8.81232 497.671C16.0397 483.979 29.4494 485.501 40.8802 490.192C125.942 525.105 192.759 484.822 258.937 439.005C281.241 423.566 304.365 408.009 334.013 410.466C340.293 410.986 345.998 413.856 345.958 418.929C345.921 423.479 341.681 430.007 337.487 432.208L337.491 432.201Z" fill="#E4E1D9"/>
<path d="M428.335 274.293C364.045 246.858 296.102 256.767 229.296 261.958C215.694 263.013 201.404 275.603 204.072 292.017C205.839 302.883 220.533 301.206 229.158 299.116C277.559 287.383 326.265 280.085 375.912 287.944C390.629 290.273 413.286 288.539 413.235 309.499C413.182 331.319 391.704 329.662 376.299 328.298C330.744 324.269 285.844 319.293 240.76 334.914C146.22 367.671 90.625 343.479 67.1386 246.217C39.3951 131.325 -30.8861 71.4933 -141 50.1875V68.513C-140.251 68.6306 -139.508 68.7784 -138.792 69.0069C-45.9792 98.5782 28.1189 208.218 32.8262 320.849C34.3315 356.861 41.1086 392.86 75.7939 412.708C115.475 435.415 152.657 418.259 186.146 396.98C248.189 357.554 308.407 320.187 387.394 352.45C408.8 361.192 436.413 351.069 447.978 326.064C457.933 304.529 448.216 282.773 428.335 274.289V274.293Z" fill="#E4E1D9"/>
<path d="M1203 112.424C1194.4 103.057 1185.31 94.0048 1178.58 83.4443C1143.15 27.8396 1142.1 -36.3296 1135.81 -98.9063C1130.08 -155.858 1082.44 -195.419 1027.29 -187.231C980.405 -180.269 945.774 -133.699 943.774 -77.8559C942.501 -42.2097 934.87 -6.00565 957.463 26.0622C969.63 43.336 995.391 43.8164 1006.06 63.0726C1021.54 91.0211 1011.91 121.634 1013.88 150.997C1016.47 189.516 1027.01 223.879 1060.7 246.525C1110.35 279.91 1143.54 275.472 1203 227.125V112.424ZM1146.2 248.212C1109.92 258.01 1081.96 241.936 1060.5 213.759C1041.42 188.693 1038.18 158.728 1037.91 128.304C1037.78 93.8805 1047.94 56.2048 1015.74 30.2286C997.41 15.448 971.027 12.2626 962.809 -16.3209C946.11 -74.3918 977.25 -144.579 1028.43 -158.691C1068.5 -169.742 1105.59 -137.348 1118.57 -81.5385C1132.11 -23.3567 1125.83 39.3039 1156.94 93.4201C1171.93 119.497 1192.53 143.101 1193.54 175.048C1194.64 209.935 1182.79 238.327 1146.2 248.212Z" fill="#E4E1D9"/>
<path d="M1073.47 118.975C1074.37 77.1468 1081.1 34.1019 1048.03 -0.502777C1033.34 -15.8714 1007.24 -17.37 998.473 -39.1058C987.322 -66.7519 1007.22 -104.001 1039.5 -109.232C1075.13 -115.005 1078.14 -81.8182 1084.85 -59.118C1102.05 -0.885841 1096.21 62.9038 1126.42 118.169C1137.25 137.98 1152.83 155.616 1156.45 178.693C1158.53 191.934 1154.53 204.884 1140.27 209.299C1114.83 217.178 1099.31 202.098 1086.78 182.859C1074.1 163.401 1072.29 141.44 1073.47 118.975H1073.47Z" fill="#E4E1D9"/>
</g>
<defs>
<clipPath id="clip0_3_6367">
<rect width="1344" height="1344" fill="white" transform="translate(-141 -592)"/>
</clipPath>
</defs>
</svg>
