<svg width="24" height="24" viewBox="0 0 24 24" fill="none" xmlns="http://www.w3.org/2000/svg">
<path d="M7.4471 5.6429L7.45314 5.62931L7.45836 5.61539L7.51457 5.4655C7.52225 5.44731 7.52906 5.43053 7.53475 5.41644C7.53635 5.41249 7.53781 5.40885 7.53918 5.40546C7.54421 5.39299 7.54791 5.38382 7.55173 5.37464C7.55694 5.36214 7.55978 5.35608 7.56069 5.35416L7.57611 5.32846L7.58933 5.29782C8.15719 3.98095 8.72052 3.2168 9.34947 2.83284C9.84358 2.5312 10.4397 2.42846 11.2432 2.56548L9.20081 7.31983H7.1202C6.99431 7.31983 6.86829 7.32262 6.74226 7.32888L7.40948 5.72755L7.4471 5.6429Z" fill="#E7E7E7" stroke="#E7E7E7"/>
<path d="M18.7301 8.08953L18.7101 8.07953C18.1101 7.90953 17.5001 7.81953 16.8801 7.81953H10.6201L12.8701 2.58953L12.9001 2.51953C13.0401 2.56953 13.1901 2.63953 13.3401 2.68953L15.5501 3.61953C16.7801 4.12953 17.6401 4.65953 18.1701 5.29953C18.2601 5.41953 18.3401 5.52953 18.4201 5.65953C18.5101 5.79953 18.5801 5.93953 18.6201 6.08953C18.6601 6.17953 18.6901 6.25953 18.7101 6.34953C18.8601 6.85953 18.8701 7.43953 18.7301 8.08953Z" fill="#E7E7E7"/>
<path d="M18.2902 9.52031C17.8402 9.39031 17.3702 9.32031 16.8802 9.32031H7.12023C6.44023 9.32031 5.80023 9.45031 5.20023 9.71031C3.46023 10.4603 2.24023 12.1903 2.24023 14.2003V16.1503C2.24023 16.3903 2.26023 16.6203 2.29023 16.8603C2.51023 20.0403 4.21023 21.7403 7.39023 21.9503C7.62023 21.9803 7.85023 22.0003 8.10023 22.0003H15.9002C19.6002 22.0003 21.5502 20.2403 21.7402 16.7403C21.7502 16.5503 21.7602 16.3503 21.7602 16.1503V14.2003C21.7602 11.9903 20.2902 10.1303 18.2902 9.52031ZM14.5002 16.1903H12.7502V18.0003C12.7502 18.4103 12.4102 18.7503 12.0002 18.7503C11.5902 18.7503 11.2502 18.4103 11.2502 18.0003V16.1903H9.50023C9.09023 16.1903 8.75023 15.8603 8.75023 15.4403C8.75023 15.0303 9.09023 14.6903 9.50023 14.6903H11.2502V13.0003C11.2502 12.5903 11.5902 12.2503 12.0002 12.2503C12.4102 12.2503 12.7502 12.5903 12.7502 13.0003V14.6903H14.5002C14.9102 14.6903 15.2502 15.0303 15.2502 15.4403C15.2502 15.8603 14.9102 16.1903 14.5002 16.1903Z" fill="#E9EBF8"/>
</svg>
    