<svg width="56" height="56" viewBox="0 0 56 56" fill="none" xmlns="http://www.w3.org/2000/svg">
<rect x="4" y="4" width="48" height="48" rx="24" fill="#F1F1F1"/>
<rect x="4" y="4" width="48" height="48" rx="24" stroke="#F9F9F9" stroke-width="8"/>
<path fill-rule="evenodd" clip-rule="evenodd" d="M23.5018 20.5H27.2477L27.25 20.5H30.6299C32.4915 20.5027 33.9999 22.0127 33.9999 23.875V33.25C35.6567 33.25 36.9999 31.9068 36.9999 30.25V20.6082C36.9999 19.1028 35.8751 17.7966 34.3358 17.6688C34.1121 17.6503 33.8879 17.6332 33.6632 17.6177C33.1633 16.6565 32.1583 16 31 16H29.5C28.3417 16 27.3367 16.6565 26.8368 17.6177C26.6121 17.6332 26.3878 17.6503 26.1639 17.6688C24.6617 17.7935 23.5542 19.0407 23.5018 20.5ZM29.5 17.5C28.6716 17.5 28 18.1716 28 19H32.5C32.5 18.1716 31.8284 17.5 31 17.5H29.5Z" fill="#030389"/>
<path fill-rule="evenodd" clip-rule="evenodd" d="M19 23.875C19 22.8395 19.8395 22 20.875 22H30.625C31.6605 22 32.5 22.8395 32.5 23.875V35.125C32.5 36.1605 31.6605 37 30.625 37H20.875C19.8395 37 19 36.1605 19 35.125V23.875ZM22 26.5C22 26.0858 22.3358 25.75 22.75 25.75H22.7575C23.1717 25.75 23.5075 26.0858 23.5075 26.5V26.5075C23.5075 26.9217 23.1717 27.2575 22.7575 27.2575H22.75C22.3358 27.2575 22 26.9217 22 26.5075V26.5ZM24.25 26.5C24.25 26.0858 24.5858 25.75 25 25.75H28.75C29.1642 25.75 29.5 26.0858 29.5 26.5C29.5 26.9142 29.1642 27.25 28.75 27.25H25C24.5858 27.25 24.25 26.9142 24.25 26.5ZM22 29.5C22 29.0858 22.3358 28.75 22.75 28.75H22.7575C23.1717 28.75 23.5075 29.0858 23.5075 29.5V29.5075C23.5075 29.9217 23.1717 30.2575 22.7575 30.2575H22.75C22.3358 30.2575 22 29.9217 22 29.5075V29.5ZM24.25 29.5C24.25 29.0858 24.5858 28.75 25 28.75H28.75C29.1642 28.75 29.5 29.0858 29.5 29.5C29.5 29.9142 29.1642 30.25 28.75 30.25H25C24.5858 30.25 24.25 29.9142 24.25 29.5ZM22 32.5C22 32.0858 22.3358 31.75 22.75 31.75H22.7575C23.1717 31.75 23.5075 32.0858 23.5075 32.5V32.5075C23.5075 32.9217 23.1717 33.2575 22.7575 33.2575H22.75C22.3358 33.2575 22 32.9217 22 32.5075V32.5ZM24.25 32.5C24.25 32.0858 24.5858 31.75 25 31.75H28.75C29.1642 31.75 29.5 32.0858 29.5 32.5C29.5 32.9142 29.1642 33.25 28.75 33.25H25C24.5858 33.25 24.25 32.9142 24.25 32.5Z" fill="#030389"/>
</svg>
