<svg width="16" height="16" viewBox="0 0 16 16" fill="none" xmlns="http://www.w3.org/2000/svg">
<path d="M2.65278 5.48171C2.03737 6.20922 1.56777 7.064 1.28906 8.00099C2.14993 10.892 4.82823 13 7.99889 13C8.66061 13 9.30088 12.9082 9.90766 12.7366M4.15124 4.15175C5.25541 3.42372 6.57796 3 7.99948 3C11.1701 3 13.8484 5.10803 14.7093 7.99901C14.2347 9.59458 13.2065 10.9518 11.8475 11.848M4.15124 4.15175L1.99949 2M4.15124 4.15175L6.58528 6.58579M11.8475 11.848L13.9995 14M11.8475 11.848L9.4137 9.41421M9.4137 9.41421C9.77563 9.05228 9.99949 8.55228 9.99949 8C9.99949 6.89543 9.10406 6 7.99949 6C7.44721 6 6.94721 6.22386 6.58528 6.58579M9.4137 9.41421L6.58528 6.58579" stroke="#333333" stroke-width="1.5" stroke-linecap="round" stroke-linejoin="round"/>
</svg>
