<svg width="88" height="88" viewBox="0 0 88 88" fill="none" xmlns="http://www.w3.org/2000/svg">
<rect x="4" y="4" width="80" height="80" rx="40" fill="#F1F1F1"/>
<rect x="4" y="4" width="80" height="80" rx="40" stroke="#F9F9F9" stroke-width="8"/>
<g clip-path="url(#clip0_36_7664)">
<path d="M37.6152 26.9229H39.2709V29.5868C39.2709 31.0419 39.2576 32.4972 39.2838 33.9519C39.2743 34.2499 39.3678 34.5421 39.5487 34.7797C42.9306 38.1941 46.3337 41.5879 49.9122 45.1657V26.9364H51.618V49.0181L46.5937 43.958L46.3051 44.1255V49.4683H44.528C44.528 47.3433 44.4994 45.2473 44.5439 43.1521C44.5631 42.8346 44.5092 42.517 44.3864 42.2234C44.2636 41.9299 44.0752 41.6681 43.8354 41.458C42.3487 40.0259 40.9165 38.5392 39.2908 36.9V49.4428H37.6154L37.6152 26.9229Z" fill="#030389"/>
<path d="M32.1562 26.918C33.6115 28.3812 35.0229 29.6194 36.1842 31.0573C36.6486 31.6324 36.5616 32.6479 36.7572 33.6214L34.194 30.9944L33.8458 31.2315V49.4673H32.1562V26.918Z" fill="#030389"/>
<path d="M55.0592 24.002H53.4043V28.2103H55.0592V24.002Z" fill="#EDC006"/>
<path d="M44.2363 29.6641H44.5666C44.7405 29.6641 44.9128 29.6982 45.0735 29.7645C45.2342 29.8308 45.3802 29.9279 45.5032 30.0504C45.6263 30.1729 45.7238 30.3183 45.7904 30.4783C45.857 30.6384 45.8912 30.8099 45.8912 30.9831V36.7521H45.6112C45.2465 36.7521 44.8968 36.6078 44.639 36.3511C44.3812 36.0944 44.2363 35.7462 44.2363 35.3831V29.6641Z" fill="#030389"/>
<path d="M54.2319 48.7241C54.9598 48.7241 55.5498 48.1366 55.5498 47.4119C55.5498 46.6871 54.9598 46.0996 54.2319 46.0996C53.5041 46.0996 52.9141 46.6871 52.9141 47.4119C52.9141 48.1366 53.5041 48.7241 54.2319 48.7241Z" fill="#030389"/>
<path d="M27.2731 62.9673C27.2358 62.9696 27.1985 62.964 27.1635 62.951C27.1285 62.938 27.0966 62.9179 27.0699 62.8919C27.0193 62.8355 26.9932 62.7615 26.9974 62.686V58.6732C26.9936 58.6362 26.9981 58.5988 27.0107 58.5638C27.0232 58.5287 27.0434 58.4969 27.0698 58.4706C27.0962 58.4443 27.1282 58.4242 27.1634 58.4117C27.1986 58.3992 27.2361 58.3947 27.2733 58.3985H27.6802C27.7172 58.3937 27.7549 58.3975 27.7903 58.4098C27.8256 58.422 27.8575 58.4422 27.8836 58.4689C27.9097 58.4955 27.9292 58.5279 27.9406 58.5634C27.952 58.5988 27.9549 58.6364 27.9491 58.6732V60.2834H30.0629V58.6732C30.0629 58.4901 30.1512 58.3985 30.3278 58.3985H30.7383C30.7754 58.3948 30.8129 58.3994 30.848 58.412C30.8831 58.4245 30.9149 58.4446 30.9413 58.4709C30.9676 58.4972 30.9877 58.529 31.0002 58.564C31.0127 58.599 31.0172 58.6363 31.0134 58.6732V62.6869C31.0175 62.7624 30.9915 62.8364 30.941 62.8929C30.9142 62.9188 30.8823 62.939 30.8473 62.9519C30.8123 62.9649 30.775 62.9705 30.7377 62.9682H30.3273C30.2908 62.9708 30.2542 62.9656 30.22 62.9528C30.1858 62.9401 30.1547 62.9202 30.1289 62.8944C30.0812 62.8362 30.0572 62.7621 30.0619 62.6871V61.0699H27.9481V62.6871C27.9528 62.7625 27.9282 62.8367 27.8793 62.8944C27.853 62.9201 27.8217 62.9399 27.7872 62.9527C27.7527 62.9654 27.7159 62.9707 27.6792 62.9682L27.2731 62.9673Z" fill="#030389"/>
<path d="M35.8483 58.3978C35.8855 58.394 35.923 58.3985 35.9583 58.411C35.9935 58.4234 36.0255 58.4435 36.0519 58.4698C36.0783 58.4962 36.0985 58.528 36.111 58.5631C36.1235 58.5981 36.128 58.6355 36.1242 58.6725V62.7066C36.1269 62.7477 36.12 62.7889 36.1042 62.827C36.0884 62.8651 36.064 62.899 36.033 62.9263C35.9692 62.9775 35.889 63.0043 35.8071 63.0017H35.7484C35.6731 63.0025 35.5994 62.981 35.5364 62.9399C35.4604 62.8871 35.3925 62.8236 35.3347 62.7514L33.0591 60.0493V62.686C33.0638 62.7614 33.0391 62.8356 32.9902 62.8933C32.964 62.919 32.9326 62.9389 32.8982 62.9516C32.8637 62.9643 32.8269 62.9697 32.7902 62.9672H32.3898C32.3525 62.9695 32.3151 62.9639 32.2801 62.9509C32.2451 62.938 32.2132 62.9178 32.1865 62.8918C32.1614 62.8639 32.1421 62.8314 32.1297 62.796C32.1173 62.7607 32.1119 62.7232 32.114 62.6859V58.6588C32.1109 58.6175 32.1174 58.5761 32.1329 58.5377C32.1484 58.4993 32.1726 58.465 32.2035 58.4374C32.268 58.3867 32.3485 58.3605 32.4306 58.3635H32.4857C32.5693 58.3724 32.65 58.3994 32.7219 58.4428C32.7939 58.4861 32.8554 58.5447 32.902 58.6143L35.1776 61.309V58.6724C35.1776 58.4892 35.266 58.3976 35.4426 58.3976L35.8483 58.3978Z" fill="#030389"/>
<path d="M37.4997 62.9674C37.4624 62.9696 37.425 62.9641 37.39 62.9511C37.355 62.9381 37.3232 62.918 37.2964 62.892C37.2714 62.8641 37.252 62.8316 37.2396 62.7962C37.2272 62.7609 37.2218 62.7234 37.224 62.686V58.6733C37.2202 58.6363 37.2247 58.5989 37.2372 58.5639C37.2498 58.5288 37.27 58.497 37.2964 58.4707C37.3228 58.4444 37.3548 58.4243 37.39 58.4118C37.4252 58.3993 37.4627 58.3948 37.4999 58.3986H37.9067C37.9439 58.3937 37.9816 58.3974 38.017 58.4096C38.0524 58.4218 38.0844 58.442 38.1106 58.4687C38.1368 58.4954 38.1563 58.5278 38.1677 58.5633C38.1791 58.5988 38.182 58.6365 38.1762 58.6733V62.687C38.1809 62.7623 38.1562 62.8366 38.1073 62.8943C38.0811 62.92 38.0498 62.9398 38.0153 62.9526C37.9808 62.9653 37.944 62.9706 37.9073 62.9681L37.4997 62.9674Z" fill="#030389"/>
<path d="M41.1376 62.9665C41.1003 62.9688 41.0629 62.9632 41.0279 62.9503C40.9929 62.9373 40.961 62.9171 40.9343 62.8912C40.8837 62.8348 40.8576 62.7607 40.8618 62.6852V58.6725C40.8595 58.6353 40.8651 58.5981 40.8781 58.5632C40.8912 58.5283 40.9114 58.4965 40.9375 58.4699C40.9942 58.4196 41.0686 58.3937 41.1444 58.3979H42.7745C43.3308 58.3979 43.7598 58.5272 44.0613 58.7857C44.2042 58.9268 44.3177 59.0947 44.3952 59.2796C44.4727 59.4646 44.5127 59.663 44.5129 59.8634C44.5131 60.0638 44.4734 60.2622 44.3962 60.4473C44.3191 60.6324 44.2059 60.8004 44.0632 60.9418C43.7631 61.2002 43.3335 61.3294 42.7745 61.3294H41.8126V62.6861C41.8173 62.7615 41.7926 62.8357 41.7437 62.8934C41.7175 62.9191 41.6861 62.939 41.6516 62.9517C41.6171 62.9644 41.5803 62.9698 41.5437 62.9673L41.1376 62.9665ZM41.8133 60.5838H42.8163C43.0093 60.5943 43.1987 60.529 43.3439 60.4019C43.4106 60.3343 43.4622 60.2535 43.4955 60.1648C43.5287 60.076 43.5428 59.9813 43.5369 59.8867C43.5429 59.7914 43.5288 59.696 43.4956 59.6064C43.4624 59.5168 43.4107 59.4352 43.3439 59.3667C43.1992 59.2385 43.0096 59.1726 42.8163 59.1831H41.8133V60.5838Z" fill="#030389"/>
<path d="M47.9396 61.0816L48.8362 62.685C48.8822 62.7764 48.8877 62.8465 48.8534 62.8943C48.8306 62.9206 48.8017 62.9409 48.7692 62.9535C48.7367 62.9661 48.7016 62.9706 48.667 62.9665H48.1502C48.0858 62.972 48.0215 62.9543 47.9691 62.9166C47.9113 62.8562 47.863 62.7874 47.8258 62.7125L46.9813 61.195H46.202V62.6852C46.2066 62.7605 46.182 62.8348 46.1331 62.8925C46.1069 62.9182 46.0755 62.938 46.041 62.9507C46.0066 62.9635 45.9698 62.9688 45.9331 62.9663H45.5262C45.4889 62.9686 45.4516 62.963 45.4166 62.9501C45.3816 62.9371 45.3497 62.9169 45.323 62.891C45.2724 62.8346 45.2463 62.7605 45.2505 62.685V58.6724C45.2482 58.6353 45.2538 58.5981 45.2668 58.5632C45.2799 58.5283 45.3001 58.4965 45.3262 58.4699C45.3829 58.4196 45.4572 58.3938 45.533 58.3979H47.1639C47.7248 58.3979 48.1547 58.5226 48.4536 58.7721C48.6034 58.9005 48.7216 59.0613 48.7993 59.2422C48.8769 59.4231 48.9119 59.6194 48.9015 59.8159C48.9103 60.1023 48.821 60.3832 48.6483 60.6124C48.4665 60.8381 48.2189 61.002 47.9396 61.0816ZM46.202 59.1831V60.5191H47.205C47.3962 60.5287 47.5838 60.4647 47.729 60.3405C47.7948 60.2794 47.8465 60.2048 47.8804 60.1218C47.9144 60.0388 47.9298 59.9495 47.9256 59.86C47.9296 59.7689 47.9141 59.6781 47.8802 59.5934C47.8463 59.5088 47.7948 59.4322 47.729 59.3689C47.5856 59.2408 47.3973 59.1742 47.205 59.1837L46.202 59.1831Z" fill="#030389"/>
<path d="M50.029 62.9673C49.9917 62.9695 49.9543 62.964 49.9193 62.951C49.8843 62.938 49.8525 62.9179 49.8257 62.8919C49.7751 62.8355 49.7491 62.7614 49.7533 62.6859V58.6732C49.7495 58.6362 49.754 58.5988 49.7665 58.5638C49.779 58.5287 49.7993 58.4969 49.8257 58.4706C49.8521 58.4443 49.8841 58.4242 49.9193 58.4117C49.9544 58.3992 49.992 58.3947 50.0292 58.3985H50.436C50.4731 58.3937 50.5108 58.3976 50.5461 58.4098C50.5814 58.422 50.6133 58.4423 50.6394 58.4689C50.6655 58.4956 50.685 58.5279 50.6964 58.5634C50.7077 58.5988 50.7107 58.6364 50.7049 58.6732V62.6869C50.7096 62.7623 50.6848 62.8365 50.6359 62.8942C50.6097 62.9199 50.5784 62.9397 50.5439 62.9525C50.5095 62.9652 50.4727 62.9705 50.436 62.968L50.029 62.9673Z" fill="#EDC006"/>
<path d="M56.84 62.6925C56.8488 62.7275 56.8491 62.7641 56.841 62.7992C56.8329 62.8344 56.8166 62.8671 56.7935 62.8949C56.7669 62.9204 56.7352 62.9401 56.7004 62.9525C56.6656 62.9649 56.6286 62.9699 56.5918 62.967H56.2402C56.0768 62.967 55.9848 62.8755 55.9642 62.6923L55.6615 60.2031L54.6167 62.7404C54.5933 62.8127 54.5486 62.8763 54.4883 62.9229C54.428 62.9695 54.355 62.9968 54.2789 63.0013H54.2202C54.1431 63 54.0686 62.9738 54.0077 62.9268C53.9468 62.8797 53.9029 62.8143 53.8824 62.7404L52.831 60.2031L52.5343 62.6923C52.5138 62.8755 52.4194 62.967 52.2519 62.967H51.8483C51.812 62.9718 51.7752 62.9677 51.7409 62.9551C51.7067 62.9425 51.676 62.9218 51.6515 62.8947C51.6271 62.8677 51.6096 62.8351 51.6007 62.7998C51.5917 62.7646 51.5914 62.7277 51.6 62.6923L52.1931 58.5999C52.1941 58.5658 52.2023 58.5323 52.2171 58.5015C52.2318 58.4707 52.2528 58.4433 52.2788 58.4211C52.3047 58.3988 52.335 58.3822 52.3678 58.3722C52.4005 58.3622 52.435 58.359 52.469 58.363H52.5276C52.5976 58.3656 52.665 58.3898 52.7205 58.4322C52.7761 58.4747 52.817 58.5332 52.8376 58.5999L54.2478 61.7241L55.6134 58.5999C55.6348 58.5324 55.6769 58.4732 55.7338 58.4307C55.7907 58.3883 55.8595 58.3646 55.9306 58.363H55.9856C56.0194 58.3601 56.0535 58.364 56.0857 58.3745C56.118 58.3849 56.1479 58.4016 56.1736 58.4237C56.1993 58.4457 56.2203 58.4727 56.2354 58.5029C56.2505 58.5332 56.2594 58.5661 56.2615 58.5999L56.84 62.6925Z" fill="#030389"/>
<path d="M57.9965 62.9666C57.9586 62.9698 57.9204 62.9647 57.8847 62.9516C57.849 62.9386 57.8165 62.918 57.7896 62.8912C57.7627 62.8644 57.742 62.832 57.7289 62.7965C57.7158 62.7609 57.7106 62.7229 57.7138 62.6851V58.6726C57.7115 58.6354 57.7171 58.5982 57.7302 58.5633C57.7432 58.5284 57.7634 58.4967 57.7895 58.47C57.8462 58.4198 57.9205 58.3939 57.9963 58.398H60.7064C60.7821 58.3934 60.8567 58.418 60.9146 58.4668C60.9404 58.4928 60.9603 58.524 60.9731 58.5583C60.9858 58.5925 60.9911 58.6291 60.9886 58.6656V58.9094C60.9908 58.9466 60.9852 58.9838 60.9722 59.0187C60.9592 59.0535 60.939 59.0853 60.9129 59.112C60.8562 59.1622 60.7818 59.1881 60.7061 59.184H58.6653V60.2958H60.1998C60.2755 60.2911 60.3501 60.3156 60.408 60.3643C60.4338 60.3904 60.4538 60.4217 60.4665 60.456C60.4793 60.4903 60.4847 60.527 60.4822 60.5635V60.7731C60.4844 60.8102 60.4788 60.8474 60.4658 60.8822C60.4528 60.9171 60.4326 60.9488 60.4065 60.9754C60.3498 61.0258 60.2755 61.0517 60.1996 61.0476H58.6653V62.1803H60.7203C60.9043 62.1803 60.9963 62.2682 60.9962 62.4441V62.6913C60.9999 62.7283 60.9954 62.7657 60.9828 62.8007C60.9703 62.8358 60.9501 62.8676 60.9237 62.8939C60.8973 62.9202 60.8653 62.9403 60.8301 62.9528C60.7949 62.9653 60.7574 62.9698 60.7203 62.9661L57.9965 62.9666Z" fill="#030389"/>
</g>
<defs>
<clipPath id="clip0_36_7664">
<rect width="34" height="39" fill="white" transform="translate(27 24)"/>
</clipPath>
</defs>
</svg>
