<svg width="60" height="69" viewBox="0 0 60 69" fill="none" xmlns="http://www.w3.org/2000/svg">
<g clip-path="url(#clip0_3_6305)">
<path d="M18.7324 5.16699H21.6542V9.88007C21.6542 12.4545 21.6308 15.0292 21.6769 17.603C21.6601 18.1302 21.8252 18.6472 22.1444 19.0675C28.1125 25.1085 34.118 31.1128 40.433 37.4428V5.191H43.4433V44.2586L34.5768 35.3061L34.0675 35.6025V45.055H30.9314C30.9314 41.2954 30.881 37.5872 30.9594 33.8802C30.9933 33.3186 30.8983 32.7567 30.6816 32.2373C30.4649 31.7179 30.1323 31.2547 29.7091 30.8831C27.0856 28.3494 24.5582 25.7189 21.6892 22.8188V45.01H18.7328L18.7324 5.16699Z" fill="#030389"/>
<path d="M9.09961 5.15918C11.6677 7.74793 14.1583 9.93861 16.2078 12.4827C17.0273 13.5002 16.8737 15.2968 17.219 17.0191L12.6956 12.3713L12.0811 12.7907V45.0542H9.09961V5.15918Z" fill="#030389"/>
<path d="M49.5181 0H46.5977V7.44552H49.5181V0Z" fill="#EDC006"/>
<path d="M30.416 10.0176H30.9988C31.3058 10.0176 31.6097 10.0779 31.8934 10.1952C32.177 10.3125 32.4347 10.4844 32.6517 10.7011C32.8688 10.9178 33.041 11.1751 33.1585 11.4582C33.276 11.7414 33.3364 12.0448 33.3364 12.3513V22.5579H32.8422C32.1987 22.5579 31.5816 22.3027 31.1266 21.8485C30.6716 21.3943 30.416 20.7782 30.416 20.1359V10.0176Z" fill="#030389"/>
<path d="M48.0581 43.7401C49.3425 43.7401 50.3837 42.7006 50.3837 41.4184C50.3837 40.1361 49.3425 39.0967 48.0581 39.0967C46.7737 39.0967 45.7324 40.1361 45.7324 41.4184C45.7324 42.7006 46.7737 43.7401 48.0581 43.7401Z" fill="#030389"/>
<path d="M0.486906 68.9384C0.421112 68.9424 0.355211 68.9326 0.293442 68.9096C0.231673 68.8866 0.1754 68.851 0.128239 68.805C0.0389771 68.7053 -0.0070164 68.5742 0.00033616 68.4407V61.3412C-0.00634868 61.2757 0.00165058 61.2096 0.0237561 61.1476C0.0458616 61.0856 0.0815178 61.0292 0.128137 60.9827C0.174756 60.9362 0.231176 60.9006 0.293289 60.8785C0.355402 60.8564 0.421653 60.8484 0.487242 60.8551H1.20524C1.27067 60.8466 1.33718 60.8534 1.39951 60.875C1.46183 60.8967 1.51826 60.9325 1.56431 60.9796C1.61037 61.0268 1.64478 61.084 1.66482 61.1468C1.68487 61.2096 1.68999 61.2761 1.67979 61.3412V64.19H5.41004V61.3412C5.41004 61.0171 5.56589 60.8551 5.87757 60.8551H6.60192C6.66741 60.8487 6.73351 60.8568 6.79546 60.879C6.8574 60.9011 6.91364 60.9367 6.96011 60.9833C7.00658 61.0298 7.0421 61.086 7.06413 61.1479C7.08616 61.2098 7.09414 61.2758 7.08749 61.3412V68.4423C7.09473 68.5759 7.04875 68.7069 6.95959 68.8067C6.9124 68.8526 6.85612 68.8882 6.79436 68.9112C6.73259 68.9342 6.66671 68.944 6.60092 68.9401H5.87658C5.81226 68.9447 5.7477 68.9354 5.68731 68.9128C5.62692 68.8903 5.5721 68.855 5.52659 68.8094C5.4423 68.7064 5.40008 68.5754 5.40837 68.4427V65.5815H1.67812V68.4427C1.6864 68.576 1.64286 68.7073 1.55656 68.8094C1.51031 68.8548 1.45494 68.89 1.3941 68.9125C1.33325 68.935 1.26831 68.9444 1.20357 68.9401L0.486906 68.9384Z" fill="#030389"/>
<path d="M15.6186 60.8541C15.6842 60.8473 15.7505 60.8553 15.8126 60.8773C15.8747 60.8994 15.9312 60.9349 15.9778 60.9815C16.0244 61.0281 16.0601 61.0844 16.0822 61.1464C16.1043 61.2085 16.1122 61.2746 16.1055 61.3401V68.4773C16.1101 68.55 16.098 68.6229 16.0701 68.6903C16.0422 68.7576 15.9993 68.8177 15.9445 68.866C15.8319 68.9567 15.6904 69.004 15.5458 68.9994H15.4422C15.3094 69.0008 15.1792 68.9628 15.0682 68.89C14.9341 68.7966 14.8142 68.6843 14.7122 68.5566L10.6964 63.7759V68.4409C10.7047 68.5742 10.6612 68.7056 10.5749 68.8077C10.5286 68.8531 10.4733 68.8882 10.4124 68.9108C10.3516 68.9333 10.2866 68.9427 10.2219 68.9383H9.51525C9.44945 68.9424 9.38354 68.9326 9.32177 68.9096C9.25999 68.8866 9.20372 68.851 9.15658 68.805C9.11232 68.7556 9.07825 68.698 9.0563 68.6355C9.03435 68.573 9.02497 68.5067 9.02868 68.4406V61.3158C9.02321 61.2428 9.0346 61.1695 9.06199 61.1016C9.08937 61.0337 9.13202 60.9729 9.18664 60.9241C9.30043 60.8344 9.4425 60.7881 9.58739 60.7934H9.68456C9.83212 60.809 9.97443 60.8569 10.1014 60.9336C10.2284 61.0103 10.3369 61.1139 10.4193 61.2371L14.435 66.0045V61.3398C14.435 61.0157 14.5909 60.8537 14.9026 60.8537L15.6186 60.8541Z" fill="#030389"/>
<path d="M18.5338 68.9385C18.468 68.9425 18.4021 68.9327 18.3403 68.9097C18.2785 68.8868 18.2223 68.8511 18.1751 68.8052C18.1309 68.7558 18.0968 68.6982 18.0748 68.6357C18.0529 68.5732 18.0435 68.5069 18.0472 68.4408V61.3413C18.0405 61.2758 18.0485 61.2097 18.0706 61.1477C18.0927 61.0857 18.1284 61.0294 18.175 60.9828C18.2216 60.9363 18.278 60.9007 18.3402 60.8786C18.4023 60.8566 18.4685 60.8486 18.5341 60.8552H19.2521C19.3176 60.8466 19.3843 60.8533 19.4467 60.8748C19.5092 60.8963 19.5657 60.9321 19.6119 60.9793C19.6581 61.0265 19.6926 61.0838 19.7127 61.1467C19.7328 61.2095 19.7379 61.2761 19.7277 61.3413V68.4425C19.7359 68.5758 19.6924 68.7071 19.6061 68.8092C19.5599 68.8546 19.5045 68.8898 19.4437 68.9123C19.3828 68.9349 19.3179 68.9442 19.2531 68.9399L18.5338 68.9385Z" fill="#030389"/>
<path d="M24.9523 68.9382C24.8865 68.9422 24.8206 68.9324 24.7588 68.9094C24.6971 68.8865 24.6408 68.8509 24.5936 68.8049C24.5043 68.7051 24.4583 68.5741 24.4657 68.4405V61.341C24.4617 61.2753 24.4715 61.2094 24.4945 61.1477C24.5175 61.086 24.5532 61.0298 24.5993 60.9826C24.6993 60.8936 24.8305 60.8478 24.9643 60.8553H27.841C28.8228 60.8553 29.5798 61.084 30.1119 61.5414C30.3641 61.791 30.5644 62.088 30.7011 62.4152C30.8379 62.7424 30.9085 63.0934 30.9088 63.448C30.9091 63.8026 30.8391 64.1537 30.7029 64.4812C30.5667 64.8086 30.367 65.1059 30.1152 65.356C29.5856 65.8132 28.8275 66.0418 27.841 66.0418H26.1435V68.4422C26.1518 68.5755 26.1082 68.7068 26.0219 68.8089C25.9757 68.8543 25.9203 68.8895 25.8595 68.912C25.7986 68.9345 25.7337 68.9439 25.669 68.9396L24.9523 68.9382ZM26.1448 64.7226H27.9148C28.2554 64.7412 28.5897 64.6257 28.8459 64.4008C28.9635 64.2813 29.0546 64.1383 29.1133 63.9813C29.172 63.8243 29.1969 63.6567 29.1865 63.4894C29.1971 63.3208 29.1722 63.1518 29.1136 62.9934C29.0549 62.8349 28.9637 62.6904 28.8459 62.5692C28.5906 62.3426 28.2559 62.2259 27.9148 62.2445H26.1448V64.7226Z" fill="#030389"/>
<path d="M36.9573 65.6033L38.5395 68.4401C38.6207 68.6018 38.6304 68.7258 38.5699 68.8105C38.5297 68.857 38.4787 68.8929 38.4214 68.9152C38.364 68.9375 38.3021 68.9454 38.241 68.9382H37.329C37.2153 68.9479 37.1019 68.9166 37.0094 68.8499C36.9073 68.743 36.822 68.6212 36.7566 68.4888L35.2661 65.804H33.8909V68.4405C33.8991 68.5738 33.8556 68.7051 33.7694 68.8072C33.7231 68.8526 33.6677 68.8878 33.6069 68.9103C33.546 68.9328 33.4811 68.9422 33.4164 68.9379H32.6984C32.6326 68.9419 32.5667 68.932 32.5049 68.9091C32.4431 68.8861 32.3869 68.8505 32.3397 68.8045C32.2504 68.7048 32.2044 68.5737 32.2118 68.4401V61.341C32.2078 61.2753 32.2177 61.2094 32.2407 61.1477C32.2637 61.086 32.2993 61.0298 32.3454 60.9826C32.4454 60.8937 32.5766 60.8479 32.7104 60.8553H35.5884C36.5782 60.8553 37.3369 61.076 37.8643 61.5174C38.1286 61.7444 38.3373 62.0289 38.4743 62.349C38.6114 62.6691 38.6731 63.0164 38.6547 63.364C38.6703 63.8707 38.5127 64.3677 38.2079 64.7732C37.8872 65.1725 37.4502 65.4626 36.9573 65.6033ZM33.8909 62.2445V64.6082H35.6609C35.9983 64.6251 36.3293 64.512 36.5856 64.2921C36.7017 64.1841 36.793 64.052 36.8529 63.9052C36.9128 63.7584 36.94 63.6004 36.9325 63.442C36.9396 63.2809 36.9123 63.1202 36.8525 62.9704C36.7927 62.8207 36.7017 62.6853 36.5856 62.5732C36.3326 62.3466 36.0003 62.2288 35.6609 62.2455L33.8909 62.2445Z" fill="#030389"/>
<path d="M40.6451 68.9384C40.5793 68.9423 40.5134 68.9325 40.4516 68.9095C40.3899 68.8866 40.3336 68.851 40.2864 68.805C40.1971 68.7052 40.1511 68.5742 40.1585 68.4406V61.3411C40.1519 61.2757 40.1599 61.2095 40.182 61.1475C40.2041 61.0855 40.2397 61.0292 40.2863 60.9826C40.333 60.9361 40.3894 60.9005 40.4515 60.8784C40.5136 60.8564 40.5799 60.8484 40.6454 60.8551H41.3634C41.4289 60.8466 41.4953 60.8535 41.5576 60.8751C41.6199 60.8968 41.6763 60.9326 41.7224 60.9797C41.7684 61.0269 41.8028 61.0841 41.8229 61.1468C41.8429 61.2095 41.8481 61.2761 41.838 61.3411V68.4423C41.8462 68.5756 41.8025 68.707 41.7161 68.809C41.6699 68.8545 41.6146 68.8896 41.5538 68.9121C41.493 68.9347 41.4281 68.9441 41.3634 68.9397L40.6451 68.9384Z" fill="#EDC006"/>
<path d="M52.6625 68.4529C52.6779 68.5148 52.6784 68.5795 52.6642 68.6417C52.6499 68.7039 52.6212 68.7619 52.5803 68.8109C52.5334 68.8561 52.4774 68.8909 52.416 68.9129C52.3547 68.9349 52.2893 68.9437 52.2243 68.9386H51.6038C51.3155 68.9386 51.1532 68.7766 51.1169 68.4525L50.5826 64.0485L48.7388 68.5375C48.6977 68.6655 48.6187 68.7781 48.5124 68.8605C48.406 68.9429 48.2771 68.9913 48.1427 68.9993H48.0392C47.9032 68.9969 47.7717 68.9506 47.6642 68.8674C47.5568 68.7842 47.4792 68.6684 47.4431 68.5375L45.5877 64.0485L45.064 68.4525C45.028 68.7766 44.8613 68.9386 44.5658 68.9386H43.8534C43.7895 68.947 43.7245 68.9397 43.664 68.9174C43.6036 68.8951 43.5494 68.8585 43.5063 68.8106C43.4632 68.7628 43.4323 68.7052 43.4165 68.6428C43.4006 68.5804 43.4002 68.5151 43.4153 68.4525L44.4619 61.212C44.4638 61.1517 44.4782 61.0925 44.5043 61.038C44.5303 60.9836 44.5674 60.9351 44.6132 60.8958C44.6589 60.8564 44.7124 60.8269 44.7702 60.8092C44.828 60.7915 44.8888 60.786 44.9488 60.793H45.0523C45.1758 60.7976 45.2947 60.8404 45.3927 60.9155C45.4908 60.9906 45.5629 61.0942 45.5993 61.212L48.088 66.7396L50.4978 61.212C50.5356 61.0926 50.6099 60.988 50.7103 60.9129C50.8106 60.8377 50.9321 60.7958 51.0575 60.793H51.1547C51.2143 60.7879 51.2744 60.7948 51.3313 60.8133C51.3883 60.8317 51.441 60.8613 51.4864 60.9003C51.5317 60.9394 51.5688 60.987 51.5955 61.0406C51.6221 61.0941 51.6378 61.1524 51.6416 61.212L52.6625 68.4529Z" fill="#030389"/>
<path d="M54.7056 68.9384C54.6387 68.944 54.5713 68.9349 54.5083 68.9119C54.4452 68.8888 54.3879 68.8523 54.3405 68.8049C54.293 68.7575 54.2564 68.7003 54.2333 68.6373C54.2102 68.5744 54.2011 68.5072 54.2067 68.4403V61.3412C54.2027 61.2755 54.2125 61.2096 54.2355 61.1479C54.2585 61.0862 54.2942 61.03 54.3402 60.9828C54.4403 60.8939 54.5715 60.8481 54.7053 60.8555H59.4878C59.6214 60.8473 59.753 60.8909 59.8552 60.9772C59.9007 61.0232 59.9359 61.0783 59.9584 61.139C59.9809 61.1996 59.9902 61.2644 59.9857 61.3289V61.7603C59.9897 61.826 59.9798 61.8918 59.9568 61.9536C59.9338 62.0153 59.8982 62.0715 59.8521 62.1187C59.752 62.2075 59.6209 62.2533 59.4871 62.246H55.8858V64.213H58.5938C58.7273 64.2047 58.8589 64.2482 58.9612 64.3344C59.0067 64.3805 59.0419 64.4358 59.0645 64.4965C59.087 64.5573 59.0964 64.6221 59.0921 64.6867V65.0575C59.096 65.1231 59.0862 65.1889 59.0632 65.2506C59.0402 65.3122 59.0045 65.3684 58.9585 65.4155C58.8585 65.5046 58.7273 65.5505 58.5935 65.5432H55.8858V67.5472H59.5122C59.837 67.5472 59.9993 67.7028 59.9991 68.0139V68.4514C60.0057 68.5168 59.9977 68.5829 59.9755 68.6449C59.9534 68.7069 59.9178 68.7632 59.8712 68.8097C59.8245 68.8562 59.7682 68.8918 59.7061 68.9139C59.644 68.936 59.5778 68.944 59.5122 68.9374L54.7056 68.9384Z" fill="#030389"/>
</g>
<defs>
<clipPath id="clip0_3_6305">
<rect width="60" height="69" fill="white"/>
</clipPath>
</defs>
</svg>
