<svg width="56" height="56" viewBox="0 0 56 56" fill="none" xmlns="http://www.w3.org/2000/svg">
<rect x="4" y="4" width="48" height="48" rx="24" fill="#F1F1F1"/>
<rect x="4" y="4" width="48" height="48" rx="24" stroke="#F9F9F9" stroke-width="8"/>
<path fill-rule="evenodd" clip-rule="evenodd" d="M28 16.75C22.6152 16.75 18.25 21.1152 18.25 26.5C18.25 31.8848 22.6152 36.25 28 36.25C33.3848 36.25 37.75 31.8848 37.75 26.5C37.75 21.1152 33.3848 16.75 28 16.75ZM28.75 23.5C28.75 23.0858 28.4142 22.75 28 22.75C27.5858 22.75 27.25 23.0858 27.25 23.5V25.75H25C24.5858 25.75 24.25 26.0858 24.25 26.5C24.25 26.9142 24.5858 27.25 25 27.25H27.25V29.5C27.25 29.9142 27.5858 30.25 28 30.25C28.4142 30.25 28.75 29.9142 28.75 29.5V27.25H31C31.4142 27.25 31.75 26.9142 31.75 26.5C31.75 26.0858 31.4142 25.75 31 25.75H28.75V23.5Z" fill="#030389"/>
</svg>
