<svg width="24" height="24" viewBox="0 0 24 24" fill="none" xmlns="http://www.w3.org/2000/svg">
<path d="M20.4004 12.0002C20.4004 11.0061 19.5945 10.2002 18.6004 10.2002C17.6063 10.2002 16.8004 11.0061 16.8004 12.0002C16.8004 12.9943 17.6063 13.8002 18.6004 13.8002C19.5945 13.8002 20.4004 12.9943 20.4004 12.0002Z" fill="#333333"/>
<path d="M13.8004 12.0002C13.8004 11.0061 12.9945 10.2002 12.0004 10.2002C11.0063 10.2002 10.2004 11.0061 10.2004 12.0002C10.2004 12.9943 11.0063 13.8002 12.0004 13.8002C12.9945 13.8002 13.8004 12.9943 13.8004 12.0002Z" fill="#333333"/>
<path d="M5.40039 10.2002C6.3945 10.2002 7.20039 11.0061 7.20039 12.0002C7.20039 12.9943 6.3945 13.8002 5.40039 13.8002C4.40628 13.8002 3.60039 12.9943 3.60039 12.0002C3.60039 11.0061 4.40628 10.2002 5.40039 10.2002Z" fill="#333333"/>
</svg>
